<svg width="576" height="525" viewBox="0 0 576 525" fill="none" xmlns="http://www.w3.org/2000/svg">
<path fill-rule="evenodd" clip-rule="evenodd" d="M237.514 16.0564C219.675 28.4637 204.736 43.8753 193.461 61.4198C174.99 58.0565 155.085 57.3408 134.931 59.974C139.99 39.9276 150.354 21.0603 165.326 5.30004C168.811 1.64965 173.97 -0.308852 179.264 0.0397812C199.869 1.37279 219.765 6.94067 237.514 16.0564ZM287.759 110.526C305.606 92.5363 326.487 79.3754 348.695 70.7816C335.476 52.7039 317.198 37.846 295.302 27.8587C290.558 25.6951 284.96 25.6951 280.217 27.8587C258.32 37.846 240.043 52.7039 226.824 70.7816C249.033 79.3754 269.912 92.5374 287.759 110.526ZM395.276 262.499C410.676 255.496 424.805 246.247 437.125 235.008C474.298 201.088 487.314 150.916 470.667 105.368C468.992 100.785 465.035 97.1752 460.011 95.6474C410.125 80.4818 355.113 92.3046 317.895 126.245C305.576 137.483 295.425 150.373 287.759 164.431C280.093 150.373 269.943 137.483 257.623 126.245C220.439 92.3354 165.438 80.4613 115.508 95.6474C110.472 97.1752 106.526 100.785 104.851 105.368C88.2265 150.875 101.187 201.058 138.393 235.008C150.702 246.237 164.843 255.496 180.242 262.499C164.843 269.503 150.713 278.752 138.393 289.99C101.221 323.91 88.204 374.082 104.851 419.63C106.526 424.214 110.483 427.823 115.508 429.351C165.394 444.517 220.405 432.694 257.623 398.753C269.943 387.515 280.093 374.626 287.759 360.568C295.425 374.626 305.576 387.515 317.895 398.753C355.282 432.858 410.35 444.455 460.011 429.351C465.047 427.823 468.992 424.214 470.667 419.63C487.292 374.123 474.331 323.941 437.125 289.99C424.816 278.762 410.676 269.503 395.276 262.499ZM538.898 269.38C528.804 287.796 514.18 303.392 496.431 315.174C486.893 295.771 472.937 277.838 454.357 262.499C472.181 247.785 486.482 230.069 496.419 209.815C514.168 221.596 528.804 237.203 538.898 255.619C541.27 259.946 541.27 265.052 538.898 269.38ZM79.0991 315.184C89.0369 294.929 103.337 277.214 121.162 262.499C102.583 247.161 88.6255 229.225 79.0878 209.825C61.3389 221.607 46.7148 237.203 36.6207 255.619C34.2489 259.946 34.2489 265.052 36.6207 269.38C46.7148 287.796 61.3501 303.402 79.0991 315.184ZM348.92 454.299C335.779 471.751 317.884 486.107 296.538 495.848C291.91 497.949 286.352 498.067 281.464 495.848C259.815 485.973 241.706 471.341 228.521 453.54C250.864 444.641 270.929 431.437 287.759 414.473C305.634 432.49 326.582 445.677 348.92 454.299ZM569.708 380.204C552.139 394.098 531.041 403.634 508.649 408.156C512.842 387.484 512.46 366.218 507.446 345.546C525.004 335.353 540.449 322.29 552.982 306.94C565.898 324.905 573.778 345.771 575.475 367.489C575.857 372.319 573.71 377.025 569.708 380.204ZM410.192 519.698C425.176 503.938 435.529 485.061 440.587 465.014C421.37 467.55 401.445 467.059 382.417 463.63C370.906 481.144 355.72 496.473 337.634 508.758C355.473 517.986 375.515 523.615 396.254 524.959C396.659 524.99 397.052 525 397.457 525C402.324 525 406.978 523.082 410.192 519.698ZM179.264 524.959C200.566 523.574 221.113 517.678 239.301 508.019C221.541 495.776 206.635 480.569 195.316 463.24C175.724 466.99 155.062 467.68 134.931 465.025C139.99 485.071 150.354 503.938 165.326 519.698C168.541 523.082 173.195 525 178.062 525C178.466 525 178.86 524.99 179.264 524.959ZM440.587 59.974C420.435 57.3408 400.53 58.0565 382.057 61.4198C370.783 43.8753 355.844 28.4637 338.005 16.0564C355.754 6.94067 375.65 1.37279 396.254 0.0397812C401.548 -0.308852 406.708 1.64965 410.192 5.30004C425.165 21.0603 435.529 39.9276 440.587 59.974ZM5.81006 382.122C23.4916 396.108 44.7364 405.675 67.2964 410.156C62.654 388.858 62.9013 366.874 68.0832 345.546C50.8626 335.558 35.6765 322.813 23.278 307.842C9.92414 326.033 1.76343 347.279 0.0436093 369.407C-0.338573 374.236 1.80839 378.943 5.81006 382.122ZM575.475 157.509C573.778 179.227 565.898 200.094 552.982 218.059C540.449 202.698 525.004 189.645 507.435 179.453C512.449 158.791 512.842 137.514 508.649 116.842C531.041 121.364 552.139 130.9 569.708 144.794C573.71 147.973 575.857 152.68 575.475 157.509ZM22.5361 218.059C35.0695 202.709 50.5141 189.645 68.072 179.453C63.0587 158.781 62.6877 137.504 66.8693 116.842C44.4779 121.364 23.3792 130.9 5.81006 144.794C1.80839 147.973 -0.338573 152.68 0.0436093 157.509C1.74095 179.227 9.62064 200.094 22.5361 218.059ZM237.176 262.499C237.176 237.059 259.871 216.357 287.759 216.357C315.647 216.357 338.342 237.059 338.342 262.499C338.342 287.939 315.647 308.642 287.759 308.642C259.871 308.642 237.176 287.939 237.176 262.499ZM270.898 262.499C270.898 270.99 278.452 277.88 287.759 277.88C297.067 277.88 304.62 270.99 304.62 262.499C304.62 254.009 297.067 247.118 287.759 247.118C278.452 247.118 270.898 254.009 270.898 262.499Z" fill="#1BA3B2"/>
</svg>
