<svg width="257" height="79" viewBox="0 0 257 79" fill="none" xmlns="http://www.w3.org/2000/svg">
<g filter="url(#filter0_d_0_184)">
<path d="M5 21C5 9.9543 13.9543 1 25 1H232C243.046 1 252 9.9543 252 21V50C252 61.0457 243.046 70 232 70H25C13.9543 70 5 61.0457 5 50V21Z" fill="#1BA3B2"/>
<path d="M77.78 30.332V41.5H75.54V34.236L72.548 41.5H70.852L67.844 34.236V41.5H65.604V30.332H68.148L71.7 38.636L75.252 30.332H77.78ZM88.3626 32.636V41.5H86.1066V40.38C85.8186 40.764 85.44 41.068 84.9706 41.292C84.512 41.5053 84.0106 41.612 83.4666 41.612C82.7733 41.612 82.16 41.468 81.6266 41.18C81.0933 40.8813 80.672 40.4493 80.3626 39.884C80.064 39.308 79.9146 38.6253 79.9146 37.836V32.636H82.1546V37.516C82.1546 38.22 82.3306 38.764 82.6826 39.148C83.0346 39.5213 83.5146 39.708 84.1226 39.708C84.7413 39.708 85.2266 39.5213 85.5786 39.148C85.9306 38.764 86.1066 38.22 86.1066 37.516V32.636H88.3626ZM92.8128 29.66V41.5H90.5728V29.66H92.8128ZM94.4499 37.036C94.4499 36.14 94.6259 35.3453 94.9779 34.652C95.3405 33.9587 95.8259 33.4253 96.4339 33.052C97.0525 32.6787 97.7405 32.492 98.4979 32.492C99.1592 32.492 99.7352 32.6253 100.226 32.892C100.727 33.1587 101.127 33.4947 101.426 33.9V32.636H103.682V41.5H101.426V40.204C101.138 40.62 100.738 40.9667 100.226 41.244C99.7245 41.5107 99.1432 41.644 98.4819 41.644C97.7352 41.644 97.0525 41.452 96.4339 41.068C95.8259 40.684 95.3405 40.1453 94.9779 39.452C94.6259 38.748 94.4499 37.9427 94.4499 37.036ZM101.426 37.068C101.426 36.524 101.319 36.06 101.106 35.676C100.893 35.2813 100.605 34.9827 100.242 34.78C99.8792 34.5667 99.4899 34.46 99.0739 34.46C98.6579 34.46 98.2739 34.5613 97.9219 34.764C97.5699 34.9667 97.2819 35.2653 97.0579 35.66C96.8445 36.044 96.7379 36.5027 96.7379 37.036C96.7379 37.5693 96.8445 38.0387 97.0579 38.444C97.2819 38.8387 97.5699 39.1427 97.9219 39.356C98.2845 39.5693 98.6685 39.676 99.0739 39.676C99.4899 39.676 99.8792 39.5747 100.242 39.372C100.605 39.1587 100.893 38.86 101.106 38.476C101.319 38.0813 101.426 37.612 101.426 37.068ZM107.006 31.58C106.611 31.58 106.28 31.4573 106.014 31.212C105.758 30.956 105.63 30.6413 105.63 30.268C105.63 29.8947 105.758 29.5853 106.014 29.34C106.28 29.084 106.611 28.956 107.006 28.956C107.4 28.956 107.726 29.084 107.982 29.34C108.248 29.5853 108.382 29.8947 108.382 30.268C108.382 30.6413 108.248 30.956 107.982 31.212C107.726 31.4573 107.4 31.58 107.006 31.58ZM108.11 32.636V41.5H105.87V32.636H108.11ZM117.991 41.612C117.213 41.612 116.509 41.4787 115.879 41.212C115.261 40.9453 114.77 40.5613 114.407 40.06C114.045 39.5587 113.858 38.9667 113.847 38.284H116.247C116.279 38.7427 116.439 39.1053 116.727 39.372C117.026 39.6387 117.431 39.772 117.943 39.772C118.466 39.772 118.877 39.6493 119.175 39.404C119.474 39.148 119.623 38.8173 119.623 38.412C119.623 38.0813 119.522 37.8093 119.319 37.596C119.117 37.3827 118.861 37.2173 118.551 37.1C118.253 36.972 117.837 36.8333 117.303 36.684C116.578 36.4707 115.986 36.2627 115.527 36.06C115.079 35.8467 114.69 35.532 114.359 35.116C114.039 34.6893 113.879 34.124 113.879 33.42C113.879 32.7587 114.045 32.1827 114.375 31.692C114.706 31.2013 115.17 30.828 115.767 30.572C116.365 30.3053 117.047 30.172 117.815 30.172C118.967 30.172 119.901 30.4547 120.615 31.02C121.341 31.5747 121.741 32.3533 121.815 33.356H119.351C119.33 32.972 119.165 32.6573 118.855 32.412C118.557 32.156 118.157 32.028 117.655 32.028C117.218 32.028 116.866 32.14 116.599 32.364C116.343 32.588 116.215 32.9133 116.215 33.34C116.215 33.6387 116.311 33.8893 116.503 34.092C116.706 34.284 116.951 34.444 117.239 34.572C117.538 34.6893 117.954 34.828 118.487 34.988C119.213 35.2013 119.805 35.4147 120.263 35.628C120.722 35.8413 121.117 36.1613 121.447 36.588C121.778 37.0147 121.943 37.5747 121.943 38.268C121.943 38.8653 121.789 39.42 121.479 39.932C121.17 40.444 120.717 40.8547 120.119 41.164C119.522 41.4627 118.813 41.612 117.991 41.612ZM132.125 36.876C132.125 37.196 132.104 37.484 132.061 37.74H125.581C125.635 38.38 125.859 38.8813 126.253 39.244C126.648 39.6067 127.133 39.788 127.709 39.788C128.541 39.788 129.133 39.4307 129.485 38.716H131.901C131.645 39.5693 131.155 40.2733 130.429 40.828C129.704 41.372 128.813 41.644 127.757 41.644C126.904 41.644 126.136 41.4573 125.453 41.084C124.781 40.7 124.253 40.1613 123.869 39.468C123.496 38.7747 123.309 37.9747 123.309 37.068C123.309 36.1507 123.496 35.3453 123.869 34.652C124.243 33.9587 124.765 33.4253 125.437 33.052C126.109 32.6787 126.883 32.492 127.757 32.492C128.6 32.492 129.352 32.6733 130.013 33.036C130.685 33.3987 131.203 33.916 131.565 34.588C131.939 35.2493 132.125 36.012 132.125 36.876ZM129.805 36.236C129.795 35.66 129.587 35.2013 129.181 34.86C128.776 34.508 128.28 34.332 127.693 34.332C127.139 34.332 126.669 34.5027 126.285 34.844C125.912 35.1747 125.683 35.6387 125.597 36.236H129.805ZM139.008 41.5L136 37.724V41.5H133.76V29.66H136V36.396L138.976 32.636H141.888L137.984 37.084L141.92 41.5H139.008ZM142.528 37.036C142.528 36.14 142.704 35.3453 143.056 34.652C143.419 33.9587 143.904 33.4253 144.512 33.052C145.131 32.6787 145.819 32.492 146.576 32.492C147.237 32.492 147.813 32.6253 148.304 32.892C148.805 33.1587 149.205 33.4947 149.504 33.9V32.636H151.76V41.5H149.504V40.204C149.216 40.62 148.816 40.9667 148.304 41.244C147.803 41.5107 147.221 41.644 146.56 41.644C145.813 41.644 145.131 41.452 144.512 41.068C143.904 40.684 143.419 40.1453 143.056 39.452C142.704 38.748 142.528 37.9427 142.528 37.036ZM149.504 37.068C149.504 36.524 149.397 36.06 149.184 35.676C148.971 35.2813 148.683 34.9827 148.32 34.78C147.957 34.5667 147.568 34.46 147.152 34.46C146.736 34.46 146.352 34.5613 146 34.764C145.648 34.9667 145.36 35.2653 145.136 35.66C144.923 36.044 144.816 36.5027 144.816 37.036C144.816 37.5693 144.923 38.0387 145.136 38.444C145.36 38.8387 145.648 39.1427 146 39.356C146.363 39.5693 146.747 39.676 147.152 39.676C147.568 39.676 147.957 39.5747 148.32 39.372C148.683 39.1587 148.971 38.86 149.184 38.476C149.397 38.0813 149.504 37.612 149.504 37.068ZM156.188 34.012C156.476 33.5427 156.849 33.1747 157.308 32.908C157.777 32.6413 158.31 32.508 158.908 32.508V34.86H158.316C157.612 34.86 157.078 35.0253 156.716 35.356C156.364 35.6867 156.188 36.2627 156.188 37.084V41.5H153.948V32.636H156.188V34.012ZM159.84 37.036C159.84 36.14 160.016 35.3453 160.368 34.652C160.731 33.9587 161.217 33.4253 161.825 33.052C162.443 32.6787 163.131 32.492 163.889 32.492C164.55 32.492 165.126 32.6253 165.617 32.892C166.118 33.1587 166.518 33.4947 166.817 33.9V32.636H169.073V41.5H166.817V40.204C166.529 40.62 166.129 40.9667 165.617 41.244C165.115 41.5107 164.534 41.644 163.873 41.644C163.126 41.644 162.443 41.452 161.825 41.068C161.217 40.684 160.731 40.1453 160.368 39.452C160.016 38.748 159.84 37.9427 159.84 37.036ZM166.817 37.068C166.817 36.524 166.71 36.06 166.497 35.676C166.283 35.2813 165.995 34.9827 165.633 34.78C165.27 34.5667 164.881 34.46 164.465 34.46C164.049 34.46 163.665 34.5613 163.312 34.764C162.961 34.9667 162.673 35.2653 162.449 35.66C162.235 36.044 162.129 36.5027 162.129 37.036C162.129 37.5693 162.235 38.0387 162.449 38.444C162.673 38.8387 162.961 39.1427 163.312 39.356C163.675 39.5693 164.059 39.676 164.465 39.676C164.881 39.676 165.27 39.5747 165.633 39.372C165.995 39.1587 166.283 38.86 166.497 38.476C166.71 38.0813 166.817 37.612 166.817 37.068ZM176.172 32.508C177.228 32.508 178.082 32.844 178.732 33.516C179.383 34.1773 179.708 35.1053 179.708 36.3V41.5H177.468V36.604C177.468 35.9 177.292 35.3613 176.94 34.988C176.588 34.604 176.108 34.412 175.5 34.412C174.882 34.412 174.391 34.604 174.028 34.988C173.676 35.3613 173.5 35.9 173.5 36.604V41.5H171.26V32.636H173.5V33.74C173.799 33.356 174.178 33.0573 174.636 32.844C175.106 32.62 175.618 32.508 176.172 32.508ZM185.31 32.492C185.972 32.492 186.553 32.6253 187.054 32.892C187.556 33.148 187.95 33.484 188.238 33.9V32.636H190.494V41.564C190.494 42.3853 190.329 43.116 189.998 43.756C189.668 44.4067 189.172 44.9187 188.51 45.292C187.849 45.676 187.049 45.868 186.11 45.868C184.852 45.868 183.817 45.5747 183.006 44.988C182.206 44.4013 181.753 43.6013 181.646 42.588H183.87C183.988 42.9933 184.238 43.3133 184.622 43.548C185.017 43.7933 185.492 43.916 186.046 43.916C186.697 43.916 187.225 43.7187 187.63 43.324C188.036 42.94 188.238 42.3533 188.238 41.564V40.188C187.95 40.604 187.55 40.9507 187.038 41.228C186.537 41.5053 185.961 41.644 185.31 41.644C184.564 41.644 183.881 41.452 183.262 41.068C182.644 40.684 182.153 40.1453 181.79 39.452C181.438 38.748 181.262 37.9427 181.262 37.036C181.262 36.14 181.438 35.3453 181.79 34.652C182.153 33.9587 182.638 33.4253 183.246 33.052C183.865 32.6787 184.553 32.492 185.31 32.492ZM188.238 37.068C188.238 36.524 188.132 36.06 187.918 35.676C187.705 35.2813 187.417 34.9827 187.054 34.78C186.692 34.5667 186.302 34.46 185.886 34.46C185.47 34.46 185.086 34.5613 184.734 34.764C184.382 34.9667 184.094 35.2653 183.87 35.66C183.657 36.044 183.55 36.5027 183.55 37.036C183.55 37.5693 183.657 38.0387 183.87 38.444C184.094 38.8387 184.382 39.1427 184.734 39.356C185.097 39.5693 185.481 39.676 185.886 39.676C186.302 39.676 186.692 39.5747 187.054 39.372C187.417 39.1587 187.705 38.86 187.918 38.476C188.132 38.0813 188.238 37.612 188.238 37.068Z" fill="#F5F5F5"/>
</g>
<defs>
<filter id="filter0_d_0_184" x="0" y="0" width="257" height="79" filterUnits="userSpaceOnUse" color-interpolation-filters="sRGB">
<feFlood flood-opacity="0" result="BackgroundImageFix"/>
<feColorMatrix in="SourceAlpha" type="matrix" values="0 0 0 0 0 0 0 0 0 0 0 0 0 0 0 0 0 0 127 0" result="hardAlpha"/>
<feMorphology radius="1" operator="dilate" in="SourceAlpha" result="effect1_dropShadow_0_184"/>
<feOffset dy="4"/>
<feGaussianBlur stdDeviation="2"/>
<feComposite in2="hardAlpha" operator="out"/>
<feColorMatrix type="matrix" values="0 0 0 0 0 0 0 0 0 0 0 0 0 0 0 0 0 0 0.25 0"/>
<feBlend mode="normal" in2="BackgroundImageFix" result="effect1_dropShadow_0_184"/>
<feBlend mode="normal" in="SourceGraphic" in2="effect1_dropShadow_0_184" result="shape"/>
</filter>
</defs>
</svg>
