<svg width="158" height="117" viewBox="0 0 158 117" fill="none" xmlns="http://www.w3.org/2000/svg">
<path fill-rule="evenodd" clip-rule="evenodd" d="M28.9951 0.248657C26.8193 1.26667 27.2459 4.54155 29.849 10.3865C32.457 16.2426 36.3028 20.652 40.232 22.6573C44.251 24.7086 47.9215 23.8632 48.9361 20.2655C49.8511 17.0207 43.5914 8.89949 36.9448 3.53007C33.4857 0.735585 30.7853 -0.588981 28.9951 0.248657ZM35.4468 5.07312C40.7814 10.9565 47.3565 18.6241 46.7478 20.7826C46.1525 22.8938 44.1894 23.3459 41.3352 21.8892C37.894 20.1328 33.7526 15.1475 31.325 9.69647L30.9677 8.8769C28.7479 4.97266 28.7542 1.44943 30.0262 1.05207C31.2369 0.673882 33.8608 3.3239 35.4468 5.07312ZM140.939 64.2608C140.052 62.0474 142.719 59.3233 147.637 57.3602C152.918 55.2521 156.354 55.1005 156.337 57.7242C156.326 59.4967 153.705 61.973 149.706 64.2001C145.653 66.4578 141.869 66.5796 140.939 64.2608ZM154.046 57.8637C153.954 57.8519 153.842 57.8448 153.703 57.8459L153.556 57.8498C153.408 57.8563 153.227 57.8516 153.01 57.846C151.655 57.811 148.869 57.7391 143.657 60.0968C142.54 60.6022 141.826 63.2893 141.931 63.5529C142.186 64.1892 145.517 65.149 148.529 63.4715C149.783 62.7726 150.885 61.5389 151.781 60.5352L151.781 60.5349L151.782 60.5339L151.783 60.533C152.159 60.1114 152.499 59.7305 152.799 59.4471C153.475 58.8083 153.887 58.2557 154.025 57.9206L154.046 57.8637ZM145.519 77.9024L144.972 78.7094C142.584 82.2642 141.139 84.7831 140.559 86.3744C139.784 88.5008 140.614 90.0043 142.772 89.3606C144.739 88.7735 148.531 85.8668 153.247 81.6222C157.063 78.1883 158.971 72.969 157.508 70.4688C155.519 67.0708 150.877 70.0417 145.519 77.9024ZM155.515 70.409C156.418 71.9516 154.841 77.2918 151.66 80.155L150.592 81.1062C149.763 81.837 148.874 82.6574 147.993 83.471C145.287 85.9697 142.65 88.404 142.016 87.9793C141.278 87.4846 143.68 82.8447 146.308 78.9908C148.841 75.2748 152.161 71.8449 153.841 70.7697C154.934 70.0704 155.325 70.0855 155.515 70.409ZM124.11 109.692C123.469 113.579 124.042 116.48 126.193 116.882C128.405 117.295 130.755 114.608 133.374 109.127C135.875 103.895 135.221 98.9377 131.949 98.1864C128.574 97.4116 125.509 101.703 124.177 109.297L124.11 109.692ZM131.397 100.185C132.858 100.521 133.616 104.016 131.726 108.503C130.24 112.028 126.194 120.4 125.123 113.846C124.96 112.849 124.959 111.545 125.214 109.999L125.351 109.219C126.516 102.975 129.903 99.842 131.397 100.185ZM7.06277 44.8751C1.52963 39.3693 -1.7467 32.5092 0.975888 29.5077C4.2201 25.9312 19.1925 38.304 18.997 44.4846C18.883 48.0917 17.1623 49.9426 14.3109 49.4692C12.1968 49.1182 9.62018 47.4199 7.06277 44.8751ZM2.708 29.8016L2.62981 29.896C1.1469 31.8568 2.87963 38.7867 7.59855 43.4823C9.85121 45.7238 13.2068 48.2215 14.7155 48.4719C15.9754 48.6811 16.6598 47.9449 16.7385 45.4558C16.8108 43.1695 14.0212 38.3867 9.93768 35.0122C9.48601 34.6389 8.94621 34.136 8.36059 33.5904L8.36057 33.5904C6.58552 31.9366 4.38948 29.8906 2.95028 29.8742C2.72167 29.8716 2.67232 29.8498 2.708 29.8016ZM2.708 29.8016L2.71668 29.7912C2.7134 29.7948 2.71049 29.7983 2.708 29.8016ZM68.1009 104.977C69.3629 109.98 71.8552 113.238 75.2308 115.023C77.5193 116.234 79.6441 116.589 82.079 116.589C87.3029 116.589 89.7264 114.467 88.8172 111.018C88.1353 108.432 85.512 105.219 82.0176 102.418C78.533 99.6253 74.7955 97.7316 72.0796 97.577C68.3674 97.3658 66.8712 100.101 68.1009 104.977ZM71.9389 99.6341C74.0402 99.7537 77.3838 101.448 80.5261 103.967C83.7027 106.513 86.0697 109.412 86.6204 111.5C87.1475 113.499 85.973 115.559 82.079 115.559C80.0062 115.559 78.2406 115.263 76.3643 114.271C73.5497 112.782 70.2994 108.98 69.1731 104.515C68.2365 100.801 70.0629 99.5274 71.9389 99.6341ZM77.5306 83.8086C72.854 80.2633 70.6164 76.5386 71.9635 74.4887C73.4977 72.154 77.516 73.6723 81.5866 77.7524C84.1327 80.3045 87.6994 84.7203 88.7518 86.9016C89.1806 87.7904 89.326 88.4526 88.9981 89.0573C88.5023 89.9715 87.5148 89.9963 86.3604 89.5648C84.8867 89.014 82.3946 87.4346 78.7119 84.6959L77.5306 83.8086ZM75.2164 75.7164C74.721 75.5292 74.3271 75.4623 74.0698 75.4903C73.9498 75.5033 73.9204 75.5196 73.9014 75.5484C73.8729 75.5918 73.8217 75.6492 73.7589 75.7194C73.4426 76.0733 72.8337 76.7547 73.3618 77.6338C74.1926 79.0167 76.8422 81.6373 78.9747 83.2539C81.8222 85.4126 84.8068 86.9273 86.5835 87.8289C86.9158 87.9976 87.2059 88.1448 87.4448 88.2708L87.5955 88.348L87.4287 88.0612C86.2007 86.0162 82.279 81.5589 80.1669 79.3945L79.9156 79.1397C78.1412 77.3612 76.5045 76.2031 75.2164 75.7164ZM27.9036 55.9385C26.5566 57.9884 28.7942 61.7131 33.4707 65.2583L34.652 66.1457C38.3348 68.8844 40.8268 70.4637 42.3006 71.0146C43.455 71.446 44.4425 71.4213 44.9382 70.5071C45.2662 69.9024 45.1208 69.2402 44.692 68.3514C43.6395 66.1701 40.0729 61.7542 37.5268 59.2022C33.4562 55.1221 29.4378 53.6037 27.9036 55.9385ZM30.01 56.94C30.2673 56.9121 30.6612 56.979 31.1566 57.1662C32.4447 57.6529 34.0814 58.811 35.8557 60.5895L36.1071 60.8443C38.2192 63.0087 41.0111 67.466 42.2391 69.511L42.4059 69.7977L42.2553 69.7205C40.7386 68.9212 38.295 67.2661 34.9149 64.7037C32.7824 63.0871 30.1327 60.4665 29.3019 59.0835C28.7739 58.2045 29.3828 57.5231 29.699 57.1692C29.7618 57.0989 29.8131 57.0416 29.8416 56.9982C29.8606 56.9693 29.89 56.9531 30.01 56.94ZM56.0655 59.0749C51.389 55.5296 49.1514 51.805 50.4984 49.7551C52.0326 47.4203 56.051 48.9387 60.1216 53.0187C62.6677 55.5708 66.2343 59.9867 67.2868 62.1679C67.7156 63.0567 67.861 63.7189 67.533 64.3236C67.0373 65.2378 66.0498 65.2626 64.8954 64.8311C63.4216 64.2803 60.9296 62.7009 57.2468 59.9622L56.0655 59.0749ZM53.7514 50.9828C53.256 50.7956 52.8621 50.7287 52.6048 50.7566C52.4848 50.7697 52.4554 50.7859 52.4364 50.8148C52.431 50.823 52.4252 50.8318 52.419 50.8411C52.2259 51.1326 51.6527 51.9981 52.2658 53.0188C53.0966 54.4017 55.5257 57.9033 56.3799 58.5203C58.9159 60.352 62.0971 61.7719 64.2049 62.7126C64.9612 63.0502 65.5793 63.3261 65.9798 63.5371L66.1304 63.6143L65.9636 63.3276C64.7357 61.2826 60.814 56.8253 58.7019 54.6609L58.4505 54.4061C56.6762 52.6276 55.0395 51.4695 53.7514 50.9828Z" fill="#FFB61D"/>
</svg>
