<svg width="81" height="28" viewBox="0 0 81 28" fill="none" xmlns="http://www.w3.org/2000/svg">
<path fill-rule="evenodd" clip-rule="evenodd" d="M38.995 1.24022C39.7361 -0.328557 42.1311 -0.433086 43.033 1.06398C47.633 8.69906 52.7862 14.0196 58.4566 17.0654C64.1823 20.1409 70.9374 20.4445 77.8288 17.6257C78.9627 17.162 80.294 17.6245 80.8024 18.6588C81.3108 19.6932 80.8038 20.9076 79.6699 21.3714C71.4571 24.7306 63.1645 24.3579 56.1733 20.6027C50.7244 17.6759 45.8175 13.0249 41.4307 6.67378L41.2692 6.43765L41.125 6.69441C37.5819 12.8302 33.0108 17.7306 27.4145 21.371L26.8515 21.7309C19.8055 26.1545 11.5358 28.1211 2.12327 27.6366C0.882618 27.5727 -0.0663752 26.6035 0.00363784 25.4717C0.0736509 24.34 1.13616 23.4743 2.37681 23.5382C10.8203 23.9728 18.1011 22.2413 24.3003 18.3494C30.5589 14.4201 35.4554 8.73236 38.995 1.24022Z" fill="#E7EAEE"/>
</svg>
