<svg width="143" height="215" viewBox="0 0 143 215" fill="none" xmlns="http://www.w3.org/2000/svg">
<path fill-rule="evenodd" clip-rule="evenodd" d="M19.3289 1.48731L19.2499 1.5265C4.4727 9.5723 -0.932074 20.8156 0.129042 46.9154C1.244 74.3396 12.148 79.2004 31.7238 86.7038L32.3199 86.9296C43.3091 91.0423 50.2395 96.4044 55.9088 105.391L56.3634 106.124C57.3541 107.753 58.239 109.416 59.4867 111.955L61.7219 116.581C64.7385 122.788 66.6606 126.053 69.4873 129.284C78.7651 139.889 90.3697 144.419 104.361 142.696L104.494 142.672L104.623 142.634C106.791 141.857 114.162 148.695 117.48 154.156C125.536 167.42 130.739 178.989 133.329 190.631L133.506 191.444C133.673 192.232 133.783 193.444 133.911 195.748L134.087 199.16C134.129 199.956 134.169 200.647 134.211 201.301L134.236 201.69C134.657 208.037 135.348 211.661 136.945 213.201C139.078 215.26 141.047 215.648 142.126 213.86C142.74 212.843 142.884 211.201 142.752 208.89L142.699 208.118C142.668 207.724 142.63 207.314 142.584 206.874L142.219 203.632C139.632 181.155 131.214 160.759 116.352 138.657L116.063 138.229L116.247 137.962C119.804 132.605 121.101 120.611 119.396 115.42C116.482 106.552 110.717 99.3751 100.229 89.9118L98.4022 88.2704C80.6669 72.2678 74.7178 64.0137 69.8432 46.4006L68.1657 40.307L68.1233 40.158C64.1198 26.0784 59.9181 17.6984 51.9725 11.0193C42.4394 3.00454 29.0381 -2.88347 19.3289 1.48731ZM50.4431 12.5333C57.7322 18.6606 62.8855 26.4026 66.6696 39.2983L67.4832 42.1517L68.6154 46.2925C69.8432 57.3937 73.6375 70.4717 96.8169 89.7356L98.049 90.843C108.668 100.35 114.402 107.392 117.234 116.011C118.844 120.913 117.37 133.335 113.817 137.568C113.532 137.908 113.507 138.373 113.754 138.737C128.868 160.974 137.383 181.355 139.972 203.832L140.29 206.632L140.379 207.48C140.418 207.886 140.45 208.266 140.475 208.634L140.498 208.997C140.608 210.919 140.486 212.309 140.149 212.867L140.133 212.904L140.173 212.915C139.874 212.856 139.321 212.497 138.585 211.787C137.563 210.801 136.902 207.451 136.519 202.011L136.439 200.788L136.145 195.292C136.025 193.208 135.917 192.038 135.748 191.179L135.722 191.053C133.144 178.892 127.804 166.905 119.454 153.158L119.271 152.861C115.366 146.603 107.782 139.598 103.975 140.661L103.952 140.668L104.059 140.656C90.8744 142.279 80.0458 138.052 71.2513 128C68.5008 124.856 66.6161 121.609 63.5215 115.202L61.9267 111.892C60.2437 108.433 59.2031 106.485 57.8648 104.364C52.0473 95.1424 44.8837 89.514 33.7967 85.2599L33.1767 85.0249C13.9859 77.8396 4.30918 65.9011 2.37646 46.7269L2.32131 46.1548C0.691746 28.4462 6.51841 13.1744 19.97 5.59497L20.3663 5.374L20.3276 5.39234C29.0443 1.46838 41.5231 5.03401 50.4431 12.5333Z" fill="#00160A"/>
</svg>
