<svg width="53" height="116" viewBox="0 0 53 116" fill="none" xmlns="http://www.w3.org/2000/svg">
<path fill-rule="evenodd" clip-rule="evenodd" d="M37.5231 0.125974C43.7395 -0.699632 49.2356 2.5801 51.5204 8.57696C53.3154 13.2882 52.5415 19.5195 51.5226 24.1458C50.2156 30.0797 47.4929 33.2507 41.4959 37.1783L37.8918 39.486C36.6472 40.2948 35.626 40.998 34.6493 41.7315C34.2249 42.0502 33.8148 42.3706 33.4158 42.696C30.5152 45.0617 28.3517 47.7274 27.0055 50.7013L26.8215 51.1191C26.1084 52.786 25.6569 54.439 25.0059 57.5225L24.4474 60.22C23.8811 62.9034 23.4543 64.5201 22.8123 66.2244C20.3478 72.7635 15.1438 76.2268 8.32629 75.2719C7.71154 75.1858 5.69175 75.3251 10.2176 74.4887C14.7434 73.6522 18.5486 71.2181 20.6823 65.5566C21.2826 63.963 21.6904 62.4168 22.2391 59.8154L22.8006 57.1034C23.5315 53.6443 24.0286 51.895 24.9237 49.9172C26.4059 46.6427 28.772 43.7274 31.9147 41.1643C32.337 40.8199 32.7703 40.4814 33.2177 40.1453C34.1121 39.4736 35.0363 38.8303 36.1135 38.121L37.2096 37.4108C38.1175 36.8297 39.5017 35.9502 39.7818 35.7696L40.5602 35.26C45.8644 31.7315 49.2918 28.957 50.4406 23.7411C51.3826 19.4639 49.9252 13.6042 48.2668 9.25146C46.3019 4.09409 42.8402 0.468752 37.8483 1.13172C30.498 2.11253 12.2509 26.4785 7.20558 41.3958C3.05417 53.6701 2.00046 72.5134 2.27557 89.4313L2.31985 91.8419L2.31364 95.1656C2.31605 97.859 2.3453 100.109 2.42319 102.45L2.44369 103.037C2.5673 106.423 2.78135 109.204 3.10229 111.205C3.20806 111.864 3.32432 112.429 3.44837 112.888L3.51167 113.113L3.54585 112.974C3.68596 112.357 3.80019 111.55 3.88725 110.569L3.91527 110.236L3.9655 109.529C4.10385 107.341 4.13178 104.542 4.07292 101.045L4.02114 98.6018C3.99862 97.7043 3.97104 96.7396 3.93651 95.6168L3.74778 89.1625C3.72664 88.1596 3.72845 87.6334 3.74569 87.1433L3.82988 85.2733C3.89094 83.7546 3.92849 82.1765 3.97129 79.6688L4.03497 76.0352C4.20539 67.7285 4.53814 63.5921 5.62274 58.5056C5.7864 57.7381 5.96519 56.9811 6.15997 56.2332C9.00198 45.318 15.118 37.4614 21.0354 27.8333C22.8123 24.9423 32.1395 20.5145 32.2252 21.0764C32.3108 21.6384 24.2388 24.9619 21.7889 28.679C16.577 36.5871 11.1295 46.0379 8.35127 56.7081C8.1637 57.4283 7.99141 58.1577 7.83358 58.8979L7.62805 59.8977C6.73635 64.411 6.44294 68.4528 6.28644 76.0947L6.16944 82.4601C6.13945 83.7548 6.10616 84.786 6.06024 85.8347L5.99251 87.3604C5.97769 87.9235 5.98418 88.6167 6.02357 90.1033L6.26286 98.1656C6.28352 98.9563 6.30025 99.6885 6.31425 100.42L6.35122 102.776C6.45728 111.916 5.99056 115.695 3.77066 115.979C2.03264 116.201 1.37994 114.658 0.873738 111.502C0.55775 109.532 0.345028 106.894 0.215901 103.709L0.192665 103.106C0.0984042 100.524 0.0640089 98.1084 0.0613648 95.1723L0.0637532 91.3196C-0.41259 73.7391 1.79552 53.7522 6.17954 40.79C11.4654 25.1614 28.9965 1.26373 37.5231 0.125974Z" fill="#00160A"/>
</svg>
