<svg width="485" height="619" viewBox="0 0 485 619" fill="none" xmlns="http://www.w3.org/2000/svg">
<path d="M272.567 127.832C272.835 126.725 278.374 127.594 279.932 129.484L280.413 130.07C281.864 131.825 282.749 132.379 284.622 132.379C287.015 132.379 287.829 131.987 289.19 130.362L289.553 129.917C291.133 127.943 296.705 126.51 297.127 127.576C297.55 128.642 296.946 129.819 295.777 130.204C294.901 130.493 294.403 130.872 293.549 131.893L293.148 132.386C290.813 135.302 288.871 136.483 284.622 136.483C281.172 136.483 279.173 135.305 277.042 132.805L276.336 131.951L276.017 131.573C275.314 130.761 274.885 130.433 274.387 130.303L274.279 130.278C273.066 130.034 272.3 128.939 272.567 127.832Z" fill="#00160A"/>
<path d="M276.938 97.3183C274.258 96.5703 271.814 96.356 270.401 96.5125C268.88 96.6809 266.957 97.3963 265.183 98.0563C263.763 98.5847 262.438 99.0776 261.492 99.2258C260.551 99.373 259.14 99.3252 257.766 99.2785C256.028 99.2195 254.348 99.1625 253.748 99.5039C252.674 100.115 254.277 101.103 255.215 101.216C258.456 101.608 260.817 101.701 262.381 101.472C263.768 101.27 265.021 100.92 266.723 100.324L268.499 99.7077C269.68 99.3069 269.984 99.2423 270.401 99.2337L270.694 99.2344C271.883 99.2614 273.637 99.5865 275.911 100.221C276.813 100.473 277.775 100.027 278.059 99.2258C278.343 98.4242 277.841 97.5702 276.938 97.3183Z" fill="#00160A"/>
<path d="M283.57 119.341C284.839 115.959 285.575 99.2996 284.177 99.2864C282.78 99.2731 281.635 100.296 281.62 101.571C281.6 103.364 281.612 105.083 281.624 106.696C281.659 111.534 281.686 115.406 280.8 117.385L280.611 117.793C279.465 120.387 279.144 122.594 282.206 123.111C284.034 123.419 292.243 119.171 291.77 117.972C291.298 116.772 289.848 116.148 288.532 116.58L288.187 116.692C287.406 116.942 286.385 117.721 285.466 118.423C284.649 119.047 283.913 119.609 283.496 119.684L283.431 119.695L283.57 119.341Z" fill="#00160A"/>
<path d="M293.962 97.3183C296.642 96.5703 299.086 96.356 300.499 96.5125C302.02 96.6809 303.943 97.3963 305.717 98.0563C307.137 98.5847 308.462 99.0776 309.408 99.2258C310.349 99.373 311.76 99.3252 313.134 99.2785C314.872 99.2195 316.553 99.1625 317.152 99.5039C318.226 100.115 316.623 101.103 315.685 101.216C312.444 101.608 310.083 101.701 308.519 101.472C307.132 101.27 305.879 100.92 304.178 100.324L302.401 99.7077C301.22 99.3069 300.916 99.2423 300.499 99.2337L300.206 99.2344C299.017 99.2614 297.263 99.5865 294.989 100.221C294.087 100.473 293.125 100.027 292.841 99.2258C292.557 98.4242 293.059 97.5702 293.962 97.3183Z" fill="#00160A"/>
<path d="M308.444 108.919C309.151 107.819 308.746 106.405 307.54 105.76C307.115 105.533 306.778 105.964 306.266 106.619C305.328 107.819 303.803 109.77 300.074 109.77C296.316 109.77 294.774 107.801 293.836 106.603C293.336 105.965 293.008 105.546 292.607 105.76C291.401 106.405 290.997 107.819 291.703 108.919C293.487 111.695 296.389 113.139 300.074 113.139C303.758 113.139 306.661 111.695 308.444 108.919Z" fill="#00160A"/>
<path d="M276.134 105.811C277.309 106.501 277.648 107.93 276.891 109.002C274.953 111.746 271.857 113.139 267.92 113.139C263.953 113.139 260.888 111.721 259.083 108.922C258.375 107.823 258.103 106.34 259.982 105.762C260.803 105.509 261.636 106.24 262.665 107.144C263.99 108.308 265.642 109.759 268.014 109.759C272.504 109.759 274.093 107.706 275 106.535C275.457 105.946 275.741 105.58 276.134 105.811Z" fill="#00160A"/>
<path fill-rule="evenodd" clip-rule="evenodd" d="M284.151 0.49078C269.97 2.79846 259.107 12.6002 256.985 27.0805C256.885 27.7689 256.818 28.4403 256.786 29.0947C254.328 29.7979 247.048 31.9419 247.248 32.6113C247.434 33.2344 253.891 31.8339 256.801 31.1689C257.223 37.5177 261.155 42.069 267.78 44.8537C269.466 45.5624 271.279 46.1444 273.204 46.6136C266.358 48.5808 259.359 52.1796 253.831 57.1243C243.614 66.2609 238.879 79.1477 241.401 95.5229C241.423 95.6706 241.447 95.8184 241.471 95.9663C233.321 93.6764 228.363 96.7153 228.363 104.751C228.363 112.813 241.285 117.343 246.751 114.066C252.261 127.374 260.841 139.678 269.466 146.8C269.204 147.316 269.149 147.92 269.361 148.501C269.995 150.235 270.187 151.543 270.016 152.377L269.98 152.53C269.786 153.264 269.225 154.312 268.285 155.622L268.105 155.868L267.578 156.019C222.415 169.25 205.134 207.593 215.569 270.169L215.606 270.346L215.798 271.085C220.834 290.113 230.365 301.216 242.237 304.093C242.235 304.144 242.235 304.197 242.237 304.249C244.312 368.343 246.125 419.411 247.678 457.457L248.242 470.967L248.804 483.773C249.599 501.374 250.312 514.906 250.944 524.374L251.349 530.185C252.043 539.691 252.448 541.784 253.936 542.743L254.081 542.831L254.191 542.892C254.512 543.062 254.906 543.213 255.377 543.347C254.823 543.347 254.268 543.346 253.71 543.346L242.726 543.336C227.873 543.297 213.653 543.112 194.777 542.743L148.343 541.779C134.446 541.515 126.629 541.433 117.919 541.445L110.874 541.473C90.8411 541.618 75.0934 542.431 61.7605 544.146C29.7046 548.267 10.6456 557.949 2.20316 576.21C-2.10656 585.532 -0.0311842 593.589 7.88273 599.863C14.6773 605.251 25.7313 609.324 40.7775 612.307L41.6175 612.471C67.3574 617.456 103.904 619.259 150.249 618.625L153.099 618.583C174.87 618.241 197.194 617.425 224.065 616.107L250.817 614.724C260.216 614.23 269.9 613.722 273.347 613.554L278.01 613.334C287.912 612.885 294.295 612.718 298.235 612.83L302.652 612.982C366.52 615.116 416.361 612.202 448.426 605.335C463.054 602.202 473.518 598.317 479.37 593.897C485.708 589.109 486.802 583.347 482.104 578.258C467.445 562.382 443.386 553.412 404.515 548.631L402.507 548.389C374.66 545.093 340.959 543.766 283.268 543.433L283.584 543.414C285.018 543.326 286.149 542.264 286.204 540.953L290.378 434.15C290.495 434.152 290.617 434.149 290.742 434.141C296.195 433.799 299.888 430.724 306.616 419.16L307.416 417.769L308.332 416.152C309.972 413.389 314.328 409.098 318.063 405.419L318.064 405.418C320.514 403.004 322.697 400.854 323.667 399.574C325.679 399.933 328.602 400.215 332.436 400.419L332.915 400.443L329.873 407.183L329.815 407.326C329.435 408.382 330.05 409.537 331.222 409.905C371.362 422.498 393.184 412.669 398.82 386.207C406.859 348.464 385.104 329.501 334.969 329.984L335.761 305.825C338.842 305.428 341.726 304.296 344.312 302.382C351.631 296.963 355.899 285.733 356.741 268.727C359.603 210.954 341.118 174.58 301.157 160.201L299.798 159.723L299.669 159.397C298.966 157.581 298.494 156.11 298.255 155.002L298.204 154.753C297.952 153.455 297.952 151.285 298.233 148.315C298.268 147.945 298.205 147.588 298.065 147.265C307.909 139.999 317.517 126.947 322.205 113.446L322.324 113.484C322.373 113.499 322.424 113.516 322.476 113.533L324.636 114.233C326.053 114.668 327.24 114.948 328.454 115.093C335.112 115.891 339.163 111.933 339.163 102.746C339.163 99.2738 337.331 96.8716 333.906 96.324C331.665 95.9659 328.852 96.4396 325.359 97.6814C327.025 77.7135 321.898 63.4309 311.444 54.5049C307.506 51.1421 302.898 48.6785 298.114 47.0871C302.561 46.0017 307.017 44.165 310.482 41.652C318.43 35.886 320.937 27.2137 316.377 15.9509L331.878 12.7957L332.002 12.7564C332.522 12.5601 332.653 11.3822 332.653 10.5023C332.653 9.62243 331.861 8.61446 331.264 8.76918L315.405 13.7518C310.305 3.42096 297.45 -1.67314 284.151 0.49078ZM259.963 546.431L260.723 546.432C264.376 546.438 267.942 546.452 271.425 546.473C271.157 549.261 271.092 552.658 271.358 555.145H260.766C260.663 553.156 260.39 549.476 259.963 546.431ZM256.857 546.429C256.615 548.189 256.418 550.174 256.242 551.958C256.103 553.36 255.976 554.638 255.85 555.584C255.762 555.647 255.68 555.716 255.603 555.79C249.681 561.529 243.554 565.264 237.223 567.036L236.192 567.317C230.779 568.76 220.64 571.037 220.841 570.984C216.423 572.134 214.283 573.457 213.532 576.222C212.294 580.773 217.342 582.77 230.436 582.848L231.433 582.85C233.583 582.847 235.48 582.648 239.659 582.045L242.91 581.572C246.188 581.107 248.128 580.908 249.904 580.892L250.673 580.897C251.606 580.919 252.568 581.007 254.675 581.252L257.248 581.558C258.737 581.732 259.789 581.838 260.901 581.922C265.504 582.269 269.02 581.978 271.965 580.689C279.586 577.354 280.513 569.057 275.525 556.498C275.519 556.483 275.513 556.468 275.507 556.454C275.533 556.314 275.546 556.171 275.546 556.024V546.502C339.176 547.014 374.627 550.132 403.764 553.716L406.003 553.998C442.292 558.686 464.497 567.154 477.802 581.563C483.172 587.379 473.484 594.698 447.141 600.34C415.311 607.157 365.25 610.032 300.903 607.788L298.948 607.719C294.343 607.552 286.594 607.777 273.753 608.397L261.947 609.001C257.454 609.236 252.283 609.508 247.393 609.765C240.087 610.149 233.41 610.5 230.567 610.645L223.768 610.984C198.075 612.244 176.559 613.044 155.717 613.408L153.002 613.453C105.698 614.195 68.5305 612.438 42.7854 607.452C12.8936 601.664 -1.32379 592.176 5.13576 578.204C12.5848 562.091 31.9007 551.247 61.6405 547.292L62.5456 547.174C71.4343 546.031 81.4696 546.21 93.225 546.419C99.0745 546.523 105.35 546.635 112.122 546.596L117.925 546.576C127.345 546.563 190.131 545.73 190.131 545.73C212.112 546.175 227.758 546.387 244.466 546.419L256.857 546.429ZM294.276 149.764C290.539 151.929 286.855 153.158 283.482 153.158C280.833 153.158 277.991 152.274 275.076 150.673C275.178 151.593 275.152 152.444 274.991 153.228C274.647 154.904 273.562 157.874 271.759 160.195C271.71 160.259 271.656 160.321 271.6 160.38C274.015 161.628 277.749 162.925 282.904 162.266C288.583 161.54 291.722 159.699 293.628 158.268C293.332 155.519 293.712 152.259 294.276 149.764ZM294.249 161.019C291.891 163.832 287.918 166.883 282.904 166.883C275.35 166.883 270.387 165.173 268.774 161.545C226.992 173.921 208.581 208.349 218.025 267.647L218.308 269.382L218.461 269.973C224.257 291.93 237.93 301.576 251.393 300.071L251.805 300.022C263.86 298.476 275.609 287.891 278.754 275.828L279.22 274.013C281.566 264.702 282.991 256.471 282.991 249.706L282.983 246.899C282.905 232.163 282.213 221.256 281.345 216.446L281.282 216.117L281.187 216.355C280.82 217.262 280.427 218.372 280.014 219.68L279.89 220.078C277.991 226.223 275.763 236.21 273.229 250.086C271.367 260.284 241.468 273.085 241.02 271.877C240.881 271.5 243.33 269.961 246.813 267.773L246.816 267.771L246.83 267.762C248.187 266.91 249.7 265.959 251.277 264.941C251.221 264.846 251.164 264.746 251.106 264.639C246.7 256.578 243.987 249.506 242.984 243.392C241.992 237.349 244.306 213.028 245.776 213.035L245.961 213.041C246.702 213.089 246.539 216.24 246.298 220.912C246.034 226.004 245.678 232.902 246.297 239.554C246.969 246.778 250.48 254.055 252.918 259.109C253.592 260.505 254.183 261.731 254.611 262.74C261.056 258.378 267.515 253.275 268.236 249.327L268.811 246.217C271.089 234.045 273.121 225.062 274.906 219.189L275.018 218.826C275.995 215.661 276.908 213.4 277.809 211.962C279.224 209.703 281.369 208.527 283.623 210.162C286.126 211.978 287.379 219.792 287.839 234.038C288.222 227.657 288.859 222.492 289.722 218.624C290.443 215.392 291.321 213.052 292.416 211.572C293.971 209.472 296.402 208.755 298.613 210.166L298.762 210.265C303.512 213.583 306.714 229.673 306.901 250.596L306.91 252.347L306.956 252.591C309.856 262.592 315.868 268.422 321.323 271.914C332.454 255.275 325.975 224.451 323.227 211.376C322.435 207.608 321.953 205.314 322.291 205.258C323.82 205.006 325.283 205.931 325.559 207.326C329.077 225.067 330.887 238.184 330.985 246.741C331.085 255.399 329.495 264.524 326.228 274.111C326.181 274.25 326.122 274.382 326.052 274.508C327.717 275.288 329.178 275.852 330.28 276.277C331.703 276.826 332.528 277.145 332.421 277.399C331.922 278.59 311.749 278.59 301.881 252.917C301.847 252.828 301.847 252.7 301.848 252.585L301.848 252.545C301.848 241.836 301.044 232.287 299.631 225.002C298.989 221.686 298.237 218.945 297.434 216.933L297.327 216.669C296.969 215.807 296.617 215.131 296.315 214.663L296.303 214.643L296.24 214.756C295.711 215.752 295.168 217.369 294.682 219.545L294.603 219.907C294.357 221.055 294.051 222.328 293.715 223.722C292.268 229.735 290.277 238.004 290.232 248.31L290.228 249.848C290.228 267.825 304.081 289.593 319.83 298.122C336.194 306.984 350.211 298.273 351.684 268.519C354.515 211.385 337.221 173.103 296.961 163.69C295.646 163.382 294.782 162.39 294.249 161.019ZM287.784 255.355C287.211 261.736 285.75 268.954 283.679 276.897C280.069 290.74 266.713 302.773 252.51 304.594C250.056 304.909 247.664 304.928 245.349 304.652C245.492 306.536 245.655 309.252 245.834 312.677C246.34 312.613 246.872 312.674 247.373 312.879C251.079 314.399 271.592 316.5 289.412 316.825L290.735 316.846C311.933 317.136 327.113 314.987 329.963 311.041L330.136 305.772C326.704 305.3 323.12 304.055 319.495 302.092C303.817 293.601 290.168 273.642 287.784 255.355ZM233.425 104.751C232.986 98.7716 238.295 99.1643 242.212 99.8457C243.048 103.634 244.209 107.459 245.629 111.227L245.429 111.222C241.077 111.112 233.878 110.93 233.425 104.751ZM325.047 100.814C324.967 101.505 324.88 102.202 324.784 102.906C324.44 105.45 323.873 108.029 323.116 110.605C328.188 111.153 336.68 111.455 335.093 101.18C334.476 97.1783 328.822 99.3486 325.047 100.814ZM282.725 44.9438C284.889 44.8264 287.131 44.8964 289.401 45.1565C295.146 45.0922 303.742 42.7013 307.681 38.4394C323.133 21.7199 301.708 2.7781 285.068 5.22648C272.711 7.04459 261.051 14.9602 259.195 27.6242C258.304 33.7074 262.659 43.3952 282.725 44.9438ZM249.677 408.263C252.026 471.149 254.556 538.848 255.698 540.66C255.891 540.977 258.824 541.002 261.15 541.022L261.153 541.022H261.164C261.774 541.027 262.342 541.032 262.807 541.042L264.059 541.059L265.48 541.061C268.924 541.046 273.266 540.898 278.5 540.619L280.681 540.498L289.281 353.539C289.045 349.286 284.744 344.425 281.852 341.157C280.131 339.212 278.909 337.831 279.341 337.478C280.484 336.546 289.424 345.69 291.072 348.924C291.102 349.034 291.138 349.181 291.177 349.36C292.192 346.934 293.621 344.388 295.48 341.742C296.151 340.788 304.657 330.024 298.589 341.122C285.593 364.887 300.314 374.546 326.007 374.631L326.103 374.631L326.114 374.632C326.327 374.633 326.485 374.634 326.836 374.594C336.84 373.434 347.697 373.97 356.25 374.987C364.655 375.988 379.187 383.455 362.739 387.67C358.809 388.677 352.494 388.069 345.202 386.623L343.226 386.325L331.646 407.694L333.647 408.088C368.743 418.268 389.097 408.768 394.247 386.136L394.403 385.424C401.75 350.93 385.98 329.582 334.907 331.86L334.841 333.886C334.794 335.302 333.497 336.415 331.945 336.372C330.392 336.33 329.172 335.147 329.219 333.731L329.269 332.193C311.386 333.39 323.098 331.343 329.327 330.429L329.75 317.537C322.385 320.955 308.817 322.23 290.779 321.978L289.299 321.954C271.822 321.635 252.268 319.723 246.095 317.91C247.03 337.428 248.323 372.044 249.676 408.258L249.677 408.263ZM338.219 388.693L334.045 397.94C331.152 397.538 329.157 397.071 327.661 396.721C327.165 396.605 326.724 396.502 326.323 396.418C325.779 392.743 325.793 390.078 326.301 388.506C326.742 387.138 327.381 386.368 328.213 386.02C330.007 386.555 332.118 387.137 334.548 387.767L336.375 388.234L338.219 388.693ZM322.519 396.675C322.74 396.543 322.973 396.443 323.212 396.374C322.606 393.416 322.602 388.917 323.109 387.345C323.455 386.276 323.748 385.434 324.143 384.755C323.564 384.574 322.685 384.163 321.602 383.658C316.618 381.331 307.328 376.993 303.236 383.8C296.332 395.285 290.267 431.369 292.032 431.379C294.543 431.394 300.926 423.25 305.127 416.017L305.312 415.694L306.396 413.771C309.692 407.938 314.962 401.198 322.519 396.675ZM342.225 384.053C341.324 383.909 340.434 384.275 339.949 384.953C339.757 384.847 339.545 384.765 339.316 384.713L323.739 381.205L323.396 381.026C311.553 374.92 303.894 375.438 298.55 382.24C296.655 384.652 295.706 387.685 295.25 391.709L295.195 392.217L295.13 392.911C295.069 393.608 295.02 394.329 294.972 395.218L294.781 398.929L294.746 399.491C294.687 400.365 294.628 400.934 294.543 401.469L294.489 401.789L294.316 402.651L294.211 403.095C294.151 403.334 294.078 403.609 293.982 403.95L293.705 404.91L292.016 410.472C291.714 411.742 291.43 412.938 291.163 414.059L292.974 367.732C298.664 374.176 310.754 377.569 328.029 376.59L329.452 376.517C330.121 376.485 330.796 376.452 331.477 376.419L331.497 376.418L331.622 376.412L331.648 376.411C339.17 376.042 347.334 375.641 354.731 377.14C373.174 380.877 365.631 384.312 364.006 385.051L363.909 385.096L363.86 385.118L363.648 385.21C361.05 386.264 354.954 386.051 343.436 384.246L342.225 384.053ZM221.46 574.07L222.074 573.906C221.777 573.988 244.023 571.114 255.929 559.816C258.176 557.684 271.814 559.249 271.814 559.249L271.827 559.281C276.961 567.036 277.701 575.097 271.261 577.474C268.987 578.314 265.147 579.15 261.272 578.858L260.708 578.813L259.913 578.74C259.367 578.687 258.78 578.624 258.091 578.544L254.26 578.094C252.243 577.869 251.353 577.813 250.135 577.813C248.007 577.813 237.78 579.184 237.78 579.184C234.659 579.62 233.069 579.77 231.427 579.772C224.852 579.781 220.712 578.306 218.675 577.55L218.481 577.474C218.299 577.399 218.15 577.326 218.034 577.256L217.909 577.175L217.899 577.21C218.135 576.343 218.931 574.772 221.46 574.07ZM320.977 102.906C321.62 98.1565 321.832 93.7171 321.662 89.5903C313.868 92.4134 306.066 91.8951 299.435 88.3332C293.986 85.4067 289.08 80.7562 284.694 74.4057L284.533 74.1707L284.388 74.4264C280.845 80.5616 276.275 85.4614 270.679 89.1015L270.116 89.4613C263.093 93.8704 254.854 95.8384 245.48 95.3709L245.517 95.5229C250.863 116.987 269.442 150.057 283.789 150.849C289.277 151.153 297.24 143.067 304.624 134.301C312.597 124.837 319.514 113.721 320.977 102.906ZM307.985 57.8761C315.006 63.8705 319.962 73.0285 321.334 85.2711C321.251 85.2949 321.169 85.3233 321.088 85.3566C314.197 88.175 307.443 88.8976 301.718 85.8224C296.048 82.777 290.895 76.4308 286.296 68.7965C285.394 67.2996 282.999 67.4041 282.258 68.9727C282.111 69.2844 281.95 69.6354 281.774 70.0201C279.741 74.4548 275.655 83.3693 266.79 88.0753C260.336 91.5012 250.814 92.3685 246.112 92.7969L246.106 92.7973L246.099 92.798C245.68 92.8362 245.299 92.8709 244.962 92.9037C244.787 91.9049 244.655 90.9122 244.564 89.9271C249.936 89.0396 261.227 85.6476 265.766 83.0466C271.524 79.7473 273.288 76.38 276.219 70.7819C276.756 69.756 277.333 68.6548 277.98 67.4657C278.539 66.4389 279.865 59.5966 276.722 64.7999C276.531 65.116 276.329 65.4611 276.112 65.8316L276.11 65.8337L276.11 65.8351L276.109 65.836C272.839 71.4116 266.197 82.7384 244.433 87.905C244.01 76.4101 249.104 66.1095 256.552 59.4482C263.508 53.227 274.029 49.1137 282.023 48.4063C290.433 47.6621 300.6 51.5701 307.985 57.8761Z" fill="#00160A"/>
</svg>
