<svg width="91" height="63" viewBox="0 0 91 63" fill="none" xmlns="http://www.w3.org/2000/svg">
<path fill-rule="evenodd" clip-rule="evenodd" d="M89.5865 0H1.41304C0.632638 0 0 0.577104 0 1.289C0 23.3193 2.27902 37.0346 8.33462 46.5577C15.1625 57.2953 26.9269 62.3875 45.4999 62.3875C64.0729 62.3875 75.8372 57.2953 82.6651 46.5577C88.7206 37.0347 90.9996 23.3193 90.9996 1.289C90.9996 0.577104 90.3669 0 89.5865 0ZM5.08919 2.57796H87.0397L87.039 2.87424C86.9313 23.55 86.9435 36.4691 81.3509 45.2641C75.077 55.1306 63.1371 60.8407 45.4999 60.8407C27.8627 60.8407 17.0531 54.0994 10.7792 44.2329L10.5684 43.897C5.20243 35.2267 5.25635 23.6302 5.09637 3.68677L5.08919 2.57796Z" fill="#00160A"/>
</svg>
