<svg width="61" height="61" viewBox="0 0 61 61" fill="none" xmlns="http://www.w3.org/2000/svg">
<path d="M30.5 0C24.4677 0 18.5708 1.78879 13.5551 5.14018C8.53942 8.49156 4.63016 13.255 2.32169 18.8282C0.0132152 24.4013 -0.590786 30.5338 0.586062 36.4502C1.76291 42.3667 4.66776 47.8012 8.93326 52.0667C13.1988 56.3322 18.6333 59.2371 24.5498 60.4139C30.4662 61.5908 36.5987 60.9868 42.1718 58.6783C47.745 56.3698 52.5084 52.4606 55.8598 47.4449C59.2112 42.4292 61 36.5323 61 30.5C60.991 22.4136 57.7748 14.6611 52.0569 8.94315C46.3389 3.22523 38.5864 0.00896989 30.5 0ZM16.823 49.8647C18.3962 47.7136 20.4547 45.9639 22.8311 44.7577C25.2076 43.5515 27.835 42.9229 30.5 42.9229C33.165 42.9229 35.7925 43.5515 38.1689 44.7577C40.5453 45.9639 42.6038 47.7136 44.177 49.8647C40.1797 52.6994 35.4004 54.2221 30.5 54.2221C25.5996 54.2221 20.8203 52.6994 16.823 49.8647ZM22.5926 28.2407C22.5926 26.6768 23.0564 25.148 23.9252 23.8476C24.7941 22.5472 26.0291 21.5337 27.474 20.9352C28.9189 20.3368 30.5088 20.1802 32.0427 20.4853C33.5765 20.7904 34.9855 21.5435 36.0914 22.6494C37.1973 23.7552 37.9504 25.1642 38.2555 26.6981C38.5606 28.232 38.404 29.8219 37.8055 31.2668C37.207 32.7117 36.1935 33.9466 34.8931 34.8155C33.5928 35.6844 32.0639 36.1481 30.5 36.1481C28.4028 36.1481 26.3916 35.315 24.9086 33.8321C23.4257 32.3492 22.5926 30.3379 22.5926 28.2407ZM49.1389 45.1682C46.9424 42.3745 44.1426 40.1134 40.9491 38.5543C42.9844 36.4932 44.3647 33.8763 44.9164 31.0327C45.4681 28.1892 45.1665 25.246 44.0496 22.5734C42.9327 19.9007 41.0504 17.6181 38.6395 16.0127C36.2285 14.4072 33.3966 13.5506 30.5 13.5506C27.6034 13.5506 24.7715 14.4072 22.3606 16.0127C19.9496 17.6181 18.0673 19.9007 16.9504 22.5734C15.8335 25.246 15.532 28.1892 16.0836 31.0327C16.6353 33.8763 18.0157 36.4932 20.0509 38.5543C16.8574 40.1134 14.0577 42.3745 11.8611 45.1682C9.10213 41.6708 7.38368 37.4671 6.90248 33.0385C6.42128 28.6099 7.19678 24.1352 9.14021 20.1268C11.0836 16.1184 14.1165 12.7382 17.8915 10.3731C21.6665 8.0081 26.0312 6.75378 30.4859 6.75378C34.9406 6.75378 39.3053 8.0081 43.0803 10.3731C46.8553 12.7382 49.8881 16.1184 51.8316 20.1268C53.775 24.1352 54.5505 28.6099 54.0693 33.0385C53.5881 37.4671 51.8696 41.6708 49.1106 45.1682H49.1389Z" fill="#1BA3B2"/>
</svg>
