<svg width="141" height="211" viewBox="0 0 141 211" fill="none" xmlns="http://www.w3.org/2000/svg">
<path fill-rule="evenodd" clip-rule="evenodd" d="M66.6449 44.0476C65.2953 30.9269 58.6015 17.9387 47.9936 9.02156C40.2698 2.52793 29.2003 -2.91005 18.8708 1.73991C2.97971 10.3922 -1.28762 28.1482 0.314733 44.0476C2.30107 63.7538 12.3919 75.9047 31.7775 83.1629C42.7005 87.2508 49.9615 92.6447 55.8908 102.044C60.6337 109.559 63.3991 118.97 69.3592 125.783C78.2696 135.968 89.4203 140.495 103.165 138.804C105.889 138.804 114.664 146.257 117.406 150.772C124.568 162.563 130.715 175.012 133.536 188.324C134.36 192.209 133.777 206.743 136.684 209.548C142 214.678 140.443 204.799 140.125 201.817C137.485 177.123 127.767 156.085 113.656 135.325C117.991 130.161 118.617 117.017 117.255 112.87C113.656 100.016 69.3621 70.4625 66.6449 44.0476Z" fill="white"/>
</svg>
