<svg width="50" height="114" viewBox="0 0 50 114" fill="none" xmlns="http://www.w3.org/2000/svg">
<path fill-rule="evenodd" clip-rule="evenodd" d="M6.20969 73.2682C12.7282 74.1812 18.4073 70.6993 20.5939 64.8974C22.483 59.8827 22.6676 54.0494 24.8135 49.3077C26.2917 46.0421 28.6428 43.2688 31.5178 40.9239C39.1022 34.7391 47.0201 33.192 49.2809 22.9272C51.0533 14.8803 48.8525 -1.52138 36.5407 0.113766C27.9757 1.25666 21.054 11.697 17.0647 18.2814C12.1283 26.4287 7.52204 35.1598 4.92832 44.1097C0.65513 58.8526 0.0776724 75.2159 0.0247656 90.3152C0.0183136 92.1347 -0.397843 114.36 2.45073 113.996C5.27286 113.635 3.48564 90.5646 3.7263 85.7874" fill="white"/>
</svg>
