<svg width="139" height="164" viewBox="0 0 139 164" fill="none" xmlns="http://www.w3.org/2000/svg">
<path fill-rule="evenodd" clip-rule="evenodd" d="M137.963 113.113C136.604 136.43 127.053 146.323 115.119 147.744C113.534 147.933 115.753 156.243 114.373 157.332C106.506 163.54 92.6391 163.807 70.8954 163.988C51.2108 164.151 38.5163 162.701 29.6947 159.402C29.0199 159.15 29.6273 148.691 28.9297 148.635C17.8781 147.744 5.14708 138.797 2.05376 114.464C-8.41937 32.0806 23.0821 16.1583 53.0637 3.03226C54.6903 2.32016 55.574 1.07983 57.1899 0.37458C60.5986 -1.11314 59.7099 2.31097 67.4572 2.31097C75.2046 2.31097 75.2046 -0.372624 78.6936 1.14794C79.9952 1.71522 80.2102 5.25922 81.5061 5.88299C112.188 20.6513 141.717 48.6689 137.963 113.113Z" fill="white"/>
</svg>
