<svg width="485" height="78" viewBox="0 0 485 78" fill="none" xmlns="http://www.w3.org/2000/svg">
<path d="M110.874 0.0293298C90.8411 0.174299 75.0934 0.98756 61.7605 2.70194C29.7046 6.82379 10.6456 16.5051 2.20316 34.7661C-2.10656 44.088 -0.0311842 52.145 7.88273 58.4196C14.6773 63.8068 25.7313 67.8805 40.7775 70.863L41.6175 71.0275C67.3574 76.0118 103.904 77.8151 150.249 77.1811L153.099 77.1392C174.87 76.7977 197.194 75.9817 224.065 74.6636L250.817 73.2804C260.216 72.7861 269.9 72.2782 273.347 72.1105L278.01 71.8908C287.912 71.4411 294.295 71.2741 298.235 71.386L302.652 71.5387C366.52 73.6719 416.361 70.7586 448.426 63.8908C463.054 60.758 473.518 56.8735 479.37 52.4528C485.708 47.6652 486.802 41.9028 482.104 36.8142C467.445 20.9387 443.386 11.9688 404.515 7.18771L402.507 6.94535C370.212 3.12284 330.044 1.94844 253.71 1.9021L242.726 1.89261C227.873 1.85329 213.653 1.66817 194.777 1.29954L148.343 0.3356C134.446 0.0714702 126.629 -0.0107121 117.919 0.00109081L110.874 0.0293298Z" fill="white"/>
</svg>
