<svg width="153" height="230" viewBox="0 0 153 230" fill="none" xmlns="http://www.w3.org/2000/svg">
<path fill-rule="evenodd" clip-rule="evenodd" d="M0 3.64308C0 3.64308 31.9756 7.50857 48.1487 6.83882C64.3217 6.16908 87.973 0 87.973 0L87.4109 18.6293C87.4109 18.6293 162.859 17.2397 151.466 73.6199C143.961 110.754 86.5416 95.4843 86.5416 95.4843L97.5237 73.6199C97.5237 73.6199 131.965 75.8926 119.423 66.3338C117.096 64.56 102.223 62.1135 82.6507 62.5915C65.8394 63.0021 51.2363 58.4078 49.7167 54.2824C44.0202 38.8176 52.2925 30.6821 52.2925 30.6821C52.2925 30.6821 44.2907 34.2348 45.8088 42.8726C47.3269 51.5103 36.1445 228.364 36.1445 228.364C36.1445 228.364 26.0285 230 20.941 230C15.8536 230 8.85074 228.364 8.85074 228.364L0 3.64308Z" fill="white"/>
</svg>
